<svg width="28" height="28" viewBox="0 0 28 28" fill="none" xmlns="http://www.w3.org/2000/svg">
<g id="Frame" clip-path="url(#clip0_2070_5524)">
<path id="Vector" fill-rule="evenodd" clip-rule="evenodd" d="M27.4996 14.3072C27.5007 13.381 27.4169 12.4565 27.2491 11.5449H14.2715V16.7669H21.6856C21.5317 17.592 21.2088 18.378 20.7364 19.0775C20.264 19.777 19.6519 20.3754 18.9369 20.8366V24.2246H23.3883C25.9929 21.8744 27.4957 18.4126 27.4957 14.3047L27.4996 14.3072Z" fill="#3E82F1"/>
<path id="Vector_2" fill-rule="evenodd" clip-rule="evenodd" d="M14.2754 27.4993C17.9948 27.4993 21.1134 26.2911 23.3922 24.2295L18.9409 20.8415C17.7067 21.6516 16.1287 22.1311 14.2754 22.1311C10.6871 22.1311 7.65036 19.7554 6.56802 16.5645H1.96484V20.0631C3.11153 22.2993 4.87009 24.1789 7.04404 25.4921C9.21799 26.8053 11.7217 27.5002 14.2754 27.4993Z" fill="#32A753"/>
<path id="Vector_3" fill-rule="evenodd" clip-rule="evenodd" d="M6.56827 16.5633C5.99206 14.9003 5.99206 13.0973 6.56827 11.4342V7.93555H1.96509C1.00168 9.81728 0.5 11.8935 0.5 13.9988C0.5 16.1041 1.00168 18.1803 1.96509 20.062L6.56827 16.5633Z" fill="#F9BB00"/>
<path id="Vector_4" fill-rule="evenodd" clip-rule="evenodd" d="M14.2758 5.8682C16.299 5.8682 18.1146 6.54988 19.5421 7.8878L23.4925 4.01522C21.1072 1.83665 17.9887 0.500001 14.2784 0.500001C11.7246 0.49907 9.22092 1.194 7.04697 2.50716C4.87302 3.82032 3.11446 5.69998 1.96777 7.93612L6.57095 11.4348C7.65329 8.2439 10.6901 5.8682 14.2784 5.8682H14.2758Z" fill="#E74133"/>
</g>
<defs>
<clipPath id="clip0_2070_5524">
<rect width="27" height="27" fill="white" transform="translate(0.5 0.5)"/>
</clipPath>
</defs>
</svg>
