<svg width="30" height="27" viewBox="0 0 30 27" fill="none" xmlns="http://www.w3.org/2000/svg">
<g id="99FE484C5C3451F218 1" clip-path="url(#clip0_2070_5533)">
<g id="Group">
<path id="Vector" d="M10.9629 12.5875H12.6908L11.8268 10.1934L10.9629 12.5875Z" fill="#331D1E"/>
<path id="Vector_2" d="M15 0C6.71538 0 0 5.16396 0 11.5349C0 15.6536 2.80817 19.2716 7.03125 21.3085C6.80192 22.0808 5.55433 26.2798 5.50529 26.6103C5.50529 26.6103 5.475 26.8579 5.63942 26.9522C5.69444 26.9792 5.75453 26.9951 5.81604 26.9987C5.87754 27.0023 5.93916 26.9937 5.99712 26.9733C6.47019 26.9086 11.4779 23.4833 12.3433 22.8939C13.2235 23.0131 14.1113 23.0718 15 23.0697C23.2846 23.0697 30 17.9058 30 11.5349C30 5.16396 23.2846 0 15 0ZM7.57644 9.74414C7.55769 11.3759 7.59087 13.0921 7.56346 14.6985C7.55481 15.2119 7.25192 15.3653 6.84231 15.5116C6.79603 15.5275 6.74618 15.5309 6.69808 15.5214C6.22933 15.4314 5.85577 15.2682 5.84423 14.6999C5.81106 13.0949 5.85433 11.3759 5.83125 9.74414C5.43462 9.72866 4.86923 9.75961 4.50144 9.74414C3.99087 9.71178 3.63606 9.39528 3.65769 8.92404C3.67933 8.4528 3.9375 8.11379 4.5101 8.10534C5.86298 8.08565 7.53894 8.08565 8.89183 8.10534C9.46875 8.11379 9.72548 8.4542 9.74279 8.92404C9.7601 9.39387 9.41106 9.71178 8.90192 9.74414C8.53846 9.75961 7.97452 9.72866 7.57644 9.74414ZM14.8457 15.4342C14.6727 15.511 14.4848 15.5508 14.2947 15.551C13.9341 15.551 13.6587 15.4103 13.5736 15.1782L13.1409 14.0838H10.5072L10.0745 15.1782C9.99086 15.4075 9.71538 15.551 9.35336 15.551C9.16372 15.551 8.9763 15.5111 8.80385 15.4342C8.56442 15.3273 8.3351 15.0319 8.5976 14.2357L10.6731 8.92123C10.7601 8.68713 10.916 8.48327 11.1212 8.33514C11.3265 8.18702 11.5719 8.10122 11.8269 8.08846C12.0817 8.10258 12.3267 8.18908 12.5317 8.3373C12.7367 8.48551 12.8928 8.68898 12.9808 8.92263L15.049 14.2343C15.313 15.0319 15.0837 15.3329 14.8457 15.4342ZM19.2188 15.4342H16.4423C16.2273 15.4384 16.0193 15.3593 15.8639 15.2143C15.7085 15.0693 15.6183 14.8702 15.613 14.6605V8.93248C15.6222 8.70999 15.7193 8.49961 15.884 8.34537C16.0486 8.19113 16.2681 8.105 16.4964 8.105C16.7247 8.105 16.9442 8.19113 17.1088 8.34537C17.2735 8.49961 17.3706 8.70999 17.3798 8.93248V13.8911H19.2188C19.3269 13.8847 19.4353 13.9 19.5373 13.936C19.6392 13.972 19.7325 14.0279 19.8114 14.1004C19.8903 14.1729 19.9532 14.2603 19.9962 14.3574C20.0391 14.4544 20.0613 14.559 20.0613 14.6647C20.0613 14.7705 20.0391 14.8751 19.9962 14.9721C19.9532 15.0692 19.8903 15.1566 19.8114 15.2291C19.7325 15.3015 19.6392 15.3575 19.5373 15.3935C19.4353 15.4295 19.3269 15.4448 19.2188 15.4384V15.4342ZM25.9976 14.7984C25.9751 14.9649 25.9022 15.121 25.7881 15.2469C25.6741 15.3727 25.5242 15.4625 25.3576 15.5048C25.1909 15.5471 25.0152 15.54 24.8527 15.4843C24.6903 15.4286 24.5485 15.3269 24.4457 15.1922L22.4163 12.5716L22.1163 12.8642V14.7055C22.1163 14.9294 22.0252 15.1441 21.8629 15.3023C21.7006 15.4606 21.4805 15.5495 21.251 15.5495C21.0214 15.5495 20.8013 15.4606 20.639 15.3023C20.4768 15.1441 20.3856 14.9294 20.3856 14.7055V8.93811C20.3856 8.71426 20.4768 8.49958 20.639 8.3413C20.8013 8.18301 21.0214 8.09409 21.251 8.09409C21.4805 8.09409 21.7006 8.18301 21.8629 8.3413C22.0252 8.49958 22.1163 8.71426 22.1163 8.93811V10.7471L24.5308 8.39231C24.594 8.33136 24.669 8.28329 24.7515 8.25093C24.8339 8.21857 24.9222 8.20255 25.0111 8.20381C25.2272 8.20935 25.4335 8.29253 25.5906 8.4374C25.7477 8.58228 25.8443 8.77862 25.862 8.98875C25.8698 9.08251 25.857 9.17682 25.8244 9.26536C25.7918 9.3539 25.7402 9.43464 25.6731 9.50219L23.6971 11.4251L25.8274 14.178C25.9653 14.3566 26.025 14.5812 25.9933 14.8026L25.9976 14.7984Z" fill="#331D1E"/>
</g>
</g>
<defs>
<clipPath id="clip0_2070_5533">
<rect width="30" height="27" fill="white"/>
</clipPath>
</defs>
</svg>
