<svg width="36" height="36" viewBox="0 0 36 36" fill="none" xmlns="http://www.w3.org/2000/svg">
<g id="ic/search/sm">
<g id="Group 68">
<g id="Vector 45">
<path d="M30 11.3333L19.4431 6.20066C19.1811 6.07327 18.8766 6.06648 18.6091 6.18205L6.68958 11.3333L18.5662 17.1076C18.8574 17.2492 19.1992 17.241 19.4833 17.0856L30 11.3333Z" fill="#2B2B2B"/>
<path d="M6.68958 11.3333L18.5662 17.1076C18.8574 17.2492 19.1992 17.241 19.4833 17.0856L30 11.3333L19.4431 6.20066C19.1811 6.07327 18.8766 6.06648 18.6091 6.18205L6.68958 11.3333ZM6.68958 11.3333C6.68958 11.3333 6.05649 12.9278 6.00398 14C5.93905 15.326 6.68958 17.3333 6.68958 17.3333M30 17.3333L19.4833 23.0856C19.1992 23.241 18.8574 23.2492 18.5662 23.1076L6.68958 17.3333M6.68958 17.3333C6.68958 17.3333 6.00398 19.3391 6.00398 20.6667C6.00398 21.9942 6.68958 24 6.68958 24L18.5662 29.7743C18.8574 29.9159 19.1992 29.9077 19.4833 29.7523L30 24" stroke="#2B2B2B" stroke-width="3" stroke-linecap="round" stroke-linejoin="round"/>
</g>
</g>
</g>
</svg>
